<svg xmlns="http://www.w3.org/2000/svg" viewBox="0 0 700 1800" class="posture-fig posture-tall" role="img" aria-label="A gauche un corps dont les appuis se compensent, epaules bassin et genoux ne sont plus horizontaux. A droite le meme corps aligne sur son axe."><rect width="700" height="1800" rx="18" fill="#FCF9F3"/><defs><g id="fig"><ellipse cx="0" cy="30" rx="25" ry="32"/><path d="M 0 60 C 20 62 40 72 56 88 C 66 98 70 112 71 128 L 76 336 C 78 358 79 374 76 382 C 72 390 66 388 65 378 L 60 330 L 52 205 C 50 176 46 152 41 132 C 36 158 33 186 33 214 C 32 244 35 272 39 296 C 42 318 44 330 44 346 C 45 396 42 436 40 470 C 38 500 37 528 36 556 C 35 588 32 616 30 640 C 36 646 43 650 43 658 L 5 658 C 4 640 4 626 5 610 C 8 574 10 540 11 506 L 12 460 C 12 424 10 392 7 360 L 0 340 L -7 360 C -10 392 -12 424 -12 460 L -11 506 C -10 540 -8 574 -5 610 C -4 626 -4 640 -5 658 L -43 658 C -43 650 -36 646 -30 640 C -32 616 -35 588 -36 556 C -37 528 -38 500 -40 470 C -42 436 -45 396 -44 346 C -44 330 -42 318 -39 296 C -35 272 -32 244 -33 214 C -33 186 -36 158 -41 132 C -46 152 -50 176 -52 205 L -60 330 L -65 378 C -66 388 -72 390 -76 382 C -79 374 -78 358 -76 336 L -71 128 C -70 112 -66 98 -56 88 C -40 72 -20 62 0 60 Z"/></g></defs><text x="430" y="78" text-anchor="middle" font-family="Inter,Helvetica,Arial,sans-serif" font-size="32" font-weight="600" letter-spacing="1.6" fill="#B0654A">DÉSÉQUILIBRE</text><line x1="430" y1="112" x2="430" y2="818" stroke="#837868" stroke-width="2" stroke-dasharray="6 9" opacity=".48"/><g transform="translate(430,118) rotate(-1.4 0 660)" fill="rgba(33,28,24,.075)" stroke="rgba(33,28,24,.42)" stroke-width="2.6" stroke-linejoin="round"><use href="#fig"/></g><g stroke="#B0654A" stroke-width="4.6" stroke-linecap="round" fill="none"><path d="M 335 219 L 525 201"/><path d="M 360 440 L 500 456"/><path d="M 364 596 L 496 580"/></g><g fill="#B0654A"><circle cx="372" cy="216" r="7"/><circle cx="488" cy="204" r="7"/><circle cx="385" cy="443" r="7"/><circle cx="475" cy="453" r="7"/><circle cx="389" cy="593" r="7"/><circle cx="471" cy="583" r="7"/></g><circle cx="430" cy="448" r="9" fill="none" stroke="#B0654A" stroke-width="3.4"/><path d="M 368 794 L 492 794" stroke="#B0654A" stroke-width="3" stroke-linecap="round" opacity=".45"/><g font-family="Inter,Helvetica,Arial,sans-serif" font-size="30" fill="#837868" text-anchor="end"><text x="302" y="218">Épaules</text><text x="302" y="456">Bassin</text><text x="302" y="596">Genoux</text><text x="302" y="802">Appui</text></g><text x="430" y="864" text-anchor="middle" font-family="Inter,Helvetica,Arial,sans-serif" font-size="24" fill="#837868">l'appui se compense plus haut</text><line x1="70" y1="906" x2="630" y2="906" stroke="#DDD3C0" stroke-width="2"/><text x="430" y="968" text-anchor="middle" font-family="Inter,Helvetica,Arial,sans-serif" font-size="32" font-weight="600" letter-spacing="1.6" fill="#4F6353">ALIGNEMENT</text><line x1="430" y1="1002" x2="430" y2="1708" stroke="#4F6353" stroke-width="2" stroke-dasharray="6 9" opacity=".48"/><g transform="translate(430,1008)" fill="rgba(33,28,24,.075)" stroke="rgba(33,28,24,.42)" stroke-width="2.6" stroke-linejoin="round"><use href="#fig"/></g><g stroke="#4F6353" stroke-width="4.6" stroke-linecap="round" fill="none"><path d="M 335 1100 L 525 1100"/><path d="M 360 1338 L 500 1338"/><path d="M 364 1478 L 496 1478"/></g><g fill="#4F6353"><circle cx="372" cy="1100" r="7"/><circle cx="488" cy="1100" r="7"/><circle cx="385" cy="1338" r="7"/><circle cx="475" cy="1338" r="7"/><circle cx="389" cy="1478" r="7"/><circle cx="471" cy="1478" r="7"/></g><circle cx="430" cy="1338" r="9" fill="none" stroke="#4F6353" stroke-width="3.4"/><path d="M 368 1684 L 492 1684" stroke="#4F6353" stroke-width="3" stroke-linecap="round" opacity=".45"/><g font-family="Inter,Helvetica,Arial,sans-serif" font-size="30" fill="#837868" text-anchor="end"><text x="302" y="1108">Épaules</text><text x="302" y="1346">Bassin</text><text x="302" y="1486">Genoux</text><text x="302" y="1692">Appui</text></g><text x="430" y="1754" text-anchor="middle" font-family="Inter,Helvetica,Arial,sans-serif" font-size="24" fill="#837868">le corps se répartit sur son axe</text></svg>